<svg xmlns="http://www.w3.org/2000/svg" data-name="Layer 1" viewBox="0 0 64 64"><path fill="#fff" d="M53 17v42H11V5h30v12h12z"/><path fill="#cfd8dc" d="M53 17H41V5l12 12zM11 56h42v3H11z"/><path fill="#cfd8dc" d="M53 17v2H40a1 1 0 0 1-1-1V5h2v12Z"/><path fill="#01579b" d="M53.92 16.61a1 1 0 0 0-.22-.32l-12-12A1 1 0 0 0 41 4H11a1 1 0 0 0-1 1v54a1 1 0 0 0 1 1h42a1 1 0 0 0 1-1V17a1 1 0 0 0-.08-.39ZM42 7.41 50.59 16H42ZM12 58V6h28v11a1 1 0 0 0 1 1h11v40Z"/><path fill="#9ccc65" d="m39 37-7 6-7-6h4V25h6v12h4z"/><path fill="#01579b" d="M43 50H21a1 1 0 0 1-1-1v-8a1 1 0 0 1 2 0v7h20v-7a1 1 0 0 1 2 0v8a1 1 0 0 1-1 1Z"/><path fill="#01579b" d="M32 44a1 1 0 0 1-.65-.24l-7-6A1 1 0 0 1 25 36h3V25a1 1 0 0 1 1-1h6a1 1 0 0 1 1 1v11h3a1 1 0 0 1 .65 1.76l-7 6A1 1 0 0 1 32 44Zm-4.3-6 4.3 3.68L36.3 38H35a1 1 0 0 1-1-1V26h-4v11a1 1 0 0 1-1 1Z"/></svg>